<svg version="1.1" id="Layer_1" xmlns="http://www.w3.org/2000/svg" xmlns:xlink="http://www.w3.org/1999/xlink" x="0px" y="0px"
	 width="100%" viewBox="0 0 800 800" enable-background="new 0 0 800 800" xml:space="preserve">
<path fill="#000000" opacity="1.000000" stroke="none" 
	d="
M232.220016,527.061401 
	C224.611710,524.299377 217.556305,521.381409 212.001495,515.744019 
	C204.651291,508.284576 203.628891,500.103485 209.341415,491.326324 
	C216.576370,480.210022 227.682480,473.585449 238.566360,466.794525 
	C259.840942,453.520477 282.751312,444.352936 307.415314,439.583588 
	C314.535492,438.206696 321.667877,438.387634 328.810913,438.734131 
	C332.394470,438.907959 334.202026,437.752167 333.837158,433.401337 
	C325.967163,434.839783 318.240570,436.600708 310.417511,437.623627 
	C269.498657,442.974060 229.665314,439.879700 193.357452,418.478668 
	C152.905502,394.634979 130.179886,357.936401 120.794403,312.552856 
	C117.666801,297.429413 117.364281,282.127686 120.926338,266.967926 
	C126.066879,245.090271 139.827011,234.378479 161.295105,235.778229 
	C169.993362,236.345383 178.228622,239.166687 186.257477,242.529190 
	C205.745926,250.690918 223.283752,262.168335 240.597275,274.094147 
	C276.299500,298.686432 307.567047,327.883087 333.352631,362.810242 
	C341.083344,373.281708 348.020935,384.258942 353.309021,396.205261 
	C353.777710,397.264038 354.130035,398.397034 355.759705,399.298950 
	C359.598755,397.336273 363.016876,394.359344 366.349243,391.651886 
	C366.148956,389.472290 364.793182,388.635010 363.762390,387.594574 
	C340.085419,363.696320 341.634583,327.859314 367.400116,306.555054 
	C370.099609,304.322968 370.824921,302.362946 369.855927,298.900391 
	C365.314270,282.671265 355.558685,270.134186 342.859772,259.563843 
	C342.219513,259.030884 341.576752,258.499268 340.912292,257.997284 
	C339.021423,256.568726 338.481110,255.002350 340.036621,252.903976 
	C341.714294,250.640869 343.277588,251.282700 345.077545,252.705246 
	C358.980865,263.693268 369.680023,277.011719 375.319885,294.042664 
	C375.789551,295.460876 376.337524,296.855042 376.902069,298.238739 
	C377.086243,298.690216 377.438782,299.072968 377.847687,299.687622 
	C393.383362,293.063782 408.786713,292.884888 423.824127,299.448120 
	C425.878845,298.020142 426.199554,296.146240 426.751495,294.434906 
	C432.319580,277.169769 443.303467,263.848297 457.084961,252.519119 
	C459.032959,250.917770 460.446075,250.846680 462.110443,252.846741 
	C464.027222,255.150101 463.132477,256.547638 461.121765,258.179871 
	C447.786469,269.004852 437.306183,281.845184 432.399902,298.707550 
	C431.443176,301.995728 431.648254,304.000916 434.545074,306.366425 
	C460.542419,327.595795 462.283051,363.412842 438.669739,387.286102 
	C437.625916,388.341431 436.648651,389.462585 435.107391,391.129517 
	C438.926575,394.043060 442.516815,396.781982 445.876465,399.344971 
	C448.043121,398.524933 448.398407,396.948853 449.043488,395.646606 
	C467.111938,359.173553 493.535706,329.336487 524.010986,303.032898 
	C549.788330,280.784180 577.460266,261.023407 608.162964,245.943085 
	C619.549316,240.350449 631.373718,235.747559 644.381714,235.674606 
	C661.958740,235.576035 673.482605,243.928879 679.304138,260.736633 
	C685.268921,277.958130 684.847473,295.493988 681.350647,312.985077 
	C673.291199,353.298828 653.472656,386.545959 620.243713,411.157410 
	C598.857300,426.997559 574.306763,435.089081 548.089050,438.284821 
	C522.392334,441.417053 496.902405,440.112762 471.714966,433.913177 
	C470.931580,433.720367 470.116180,433.657440 469.089417,433.499023 
	C467.804260,437.042603 468.949249,438.783356 472.479034,438.684082 
	C514.192261,437.511444 548.676086,455.830933 581.306213,479.074646 
	C585.939453,482.375061 589.806946,486.563599 592.923645,491.364716 
	C598.387939,499.782349 597.599731,508.346222 590.403870,515.392578 
	C579.939880,525.639160 566.618408,529.230896 552.611633,530.192322 
	C512.739502,532.929443 485.534210,511.413574 471.890900,477.404053 
	C469.720673,471.994263 466.703308,468.713257 461.390259,466.481079 
	C419.780548,448.999695 378.484009,449.526031 337.348114,468.008514 
	C334.374908,469.344391 332.787811,471.510651 331.640717,474.489014 
	C325.426514,490.623657 316.472931,504.871674 302.401001,515.386292 
	C282.172211,530.501343 259.615051,533.404175 235.507645,527.907898 
	C234.534637,527.686035 233.571747,527.419861 232.220016,527.061401 
z"/>
<path fill="#000000" opacity="1.000000" stroke="none" 
	d="
M366.583710,251.415421 
	C362.168030,247.335556 358.139648,243.336349 353.792053,239.721039 
	C344.818726,232.259171 336.000885,233.402100 328.136719,242.793427 
	C320.167328,252.310440 320.435150,261.046326 329.279022,268.564240 
	C337.434784,275.497253 345.405762,282.458313 350.359558,292.280853 
	C352.498993,296.523010 352.535889,299.487152 349.025085,303.310638 
	C342.092255,310.860931 337.346832,319.877380 334.497925,329.804718 
	C334.047974,331.372620 333.984558,333.121521 332.528137,334.262512 
	C330.520386,334.217377 329.762451,332.522766 328.740082,331.305389 
	C305.295685,303.389618 277.226929,280.730133 247.603149,259.833679 
	C245.289963,258.201965 243.064514,256.418518 240.630463,254.991913 
	C236.911499,252.812225 237.426544,250.841476 240.132919,248.044052 
	C276.654388,210.293747 320.760742,187.033936 372.942535,180.819077 
	C446.569794,172.050110 509.435516,195.076828 561.562134,247.678970 
	C562.381531,248.505814 563.161133,249.377090 563.899780,250.276505 
	C564.204956,250.648087 564.352966,251.148743 564.971924,252.395050 
	C530.536926,276.398132 497.395508,302.153442 470.691528,334.783203 
	C468.256989,333.794861 468.174194,332.159637 467.804993,330.790131 
	C464.890015,319.977295 459.754913,310.339142 452.185944,302.116730 
	C449.737152,299.456482 449.590393,297.128357 451.007233,294.043030 
	C454.626221,286.162262 459.994171,279.680054 466.432037,274.000275 
	C467.680328,272.898987 468.955078,271.818573 470.290192,270.826202 
	C485.210693,259.735840 480.524902,247.740707 469.286926,238.206894 
	C463.565277,233.352905 455.819519,233.888519 449.042542,239.175476 
	C436.552002,248.919785 426.075867,260.487793 418.926208,274.719208 
	C416.746674,279.057556 414.617493,280.914215 409.358856,279.760101 
	C403.557892,278.486938 397.409210,278.644928 391.491089,279.991913 
	C388.010406,280.784149 385.833740,279.769226 384.297302,276.494049 
	C379.940491,267.206726 373.764252,259.161224 366.583710,251.415421 
z"/>
<path fill="#000000" opacity="1.000000" stroke="none" 
	d="
M314.639404,605.460815 
	C282.434906,591.658813 255.310532,571.687744 232.999680,544.564514 
	C268.047668,550.030640 299.100922,543.251953 324.796753,516.398499 
	C326.963715,529.060974 333.352722,538.708740 340.296417,547.978027 
	C350.695038,561.859131 363.473663,572.958008 380.200073,578.420715 
	C403.203430,585.933350 424.320160,581.260193 443.316376,566.808777 
	C457.097626,556.324707 467.134705,542.732117 474.471741,527.090942 
	C475.893768,524.059509 476.565613,520.841064 477.144867,516.130859 
	C489.773682,528.918701 503.419983,538.026794 519.801819,542.612061 
	C536.112793,547.177551 552.567139,546.561218 569.403870,544.555359 
	C549.084839,569.587463 524.389832,588.821594 495.296173,602.072021 
	C435.796326,629.170593 375.598450,630.229126 314.639404,605.460815 
z"/>
<path fill="#000000" opacity="1.000000" stroke="none" 
	d="
M420.228058,562.421875 
	C402.258698,569.459595 385.854919,566.799194 370.614929,556.077637 
	C358.475494,547.537292 349.926941,535.953857 343.112701,522.926697 
	C341.462616,519.772095 342.171814,518.246094 345.356079,516.873596 
	C382.556702,500.838470 419.699738,500.973694 456.876648,516.941956 
	C460.081299,518.318359 460.751862,520.118164 459.121796,523.144470 
	C450.075226,539.939697 438.471832,554.194763 420.228058,562.421875 
z"/>
<path fill="#000000" opacity="1.000000" stroke="none" 
	d="
M346.617889,501.639099 
	C335.755676,505.882355 335.755707,505.882355 332.899658,494.919891 
	C330.863220,487.103516 330.810791,486.683624 337.798218,483.198517 
	C378.679474,462.808472 419.884979,461.890594 461.242676,481.710510 
	C470.946960,486.361115 472.286346,484.300751 468.417969,498.273010 
	C466.301392,505.917786 466.339691,505.975800 459.287445,503.040344 
	C422.051758,487.541382 384.614441,487.243805 346.617889,501.639099 
z"/>
<path fill="#000000" opacity="1.000000" stroke="none" 
	d="
M189.107056,466.765106 
	C185.643173,454.796204 182.514664,443.163116 181.426270,429.759552 
	C198.317459,439.478699 214.990417,446.561188 232.991943,451.212219 
	C219.361343,460.742218 205.265213,468.972687 195.530762,483.174164 
	C192.091904,477.671967 191.076767,472.242279 189.107056,466.765106 
z"/>
<path fill="#000000" opacity="1.000000" stroke="none" 
	d="
M599.617798,440.587433 
	C606.496033,437.251740 613.021423,434.061554 620.948486,430.186096 
	C618.518799,448.919952 614.006592,465.853424 607.014648,483.605652 
	C596.746094,468.901611 582.813354,460.489563 567.781677,451.205383 
	C579.370667,447.686432 589.625000,445.071960 599.617798,440.587433 
z"/>
</svg>